<svg width="62" height="54" viewBox="0 0 62 54" fill="none" xmlns="http://www.w3.org/2000/svg">
<path d="M28.786 27.0515C28.786 27.6326 28.5527 28.1899 28.1374 28.6008C27.7222 29.0117 27.159 29.2426 26.5717 29.2426H13.2858C12.6986 29.2426 12.1354 29.0117 11.7201 28.6008C11.3048 28.1899 11.0715 27.6326 11.0715 27.0515C11.0715 26.4704 11.3048 25.913 11.7201 25.5021C12.1354 25.0912 12.6986 24.8604 13.2858 24.8604H26.5717C27.159 24.8604 27.7222 25.0912 28.1374 25.5021C28.5527 25.913 28.786 26.4704 28.786 27.0515ZM26.5717 16.096H13.2858C12.6986 16.096 12.1354 16.3268 11.7201 16.7377C11.3048 17.1487 11.0715 17.706 11.0715 18.2871C11.0715 18.8682 11.3048 19.4255 11.7201 19.8364C12.1354 20.2473 12.6986 20.4782 13.2858 20.4782H26.5717C27.159 20.4782 27.7222 20.2473 28.1374 19.8364C28.5527 19.4255 28.786 18.8682 28.786 18.2871C28.786 17.706 28.5527 17.1487 28.1374 16.7377C27.7222 16.3268 27.159 16.096 26.5717 16.096ZM57.572 34.0274V51.1535C57.5755 51.5398 57.4758 51.9202 57.2828 52.256C57.0899 52.5918 56.8107 52.8712 56.4735 53.0659C56.1363 53.2605 55.7531 53.3635 55.3627 53.3644C54.9723 53.3652 54.5886 53.2639 54.2505 53.0708L47.6076 49.3075L40.9647 53.0708C40.6266 53.2639 40.2429 53.3652 39.8525 53.3644C39.4622 53.3635 39.0789 53.2605 38.7417 53.0659C38.4045 52.8712 38.1253 52.5918 37.9324 52.256C37.7395 51.9202 37.6397 51.5398 37.6432 51.1535V44.5803H4.42861C3.25407 44.5803 2.12764 44.1186 1.29711 43.2967C0.466585 42.4749 0 41.3603 0 40.1981V5.1405C0 3.97827 0.466585 2.86364 1.29711 2.04182C2.12764 1.21999 3.25407 0.758301 4.42861 0.758301H53.1434C54.3179 0.758301 55.4444 1.21999 56.2749 2.04182C57.1054 2.86364 57.572 3.97827 57.572 5.1405V13.5023C58.9717 14.8287 60.0857 16.4217 60.8467 18.1854C61.6077 19.9492 62 21.8471 62 23.7648C62 25.6826 61.6077 27.5805 60.8467 29.3442C60.0857 31.1079 58.9717 32.701 57.572 34.0274ZM37.6432 40.1981V34.0274C35.2302 31.7246 33.7052 28.6606 33.3314 25.3641C32.9576 22.0676 33.7584 18.7453 35.5956 15.9706C37.4328 13.1959 40.1912 11.1429 43.3948 10.1657C46.5985 9.18857 50.0463 9.34861 53.1434 10.6182V5.1405H4.42861V40.1981H37.6432ZM53.1434 36.9114C51.3898 37.6364 49.5081 38.0097 47.6076 38.0097C45.7071 38.0097 43.8255 37.6364 42.0718 36.9114V47.3794L46.5005 44.8706C46.8351 44.6813 47.2139 44.5817 47.5993 44.5817C47.9848 44.5817 48.3635 44.6813 48.6982 44.8706L53.1268 47.3794L53.1434 36.9114ZM57.572 23.7648C57.572 21.8147 56.9876 19.9084 55.8927 18.2869C54.7978 16.6655 53.2416 15.4017 51.4208 14.6554C49.6001 13.9092 47.5966 13.7139 45.6637 14.0943C43.7308 14.4748 41.9553 15.4139 40.5617 16.7928C39.1682 18.1717 38.2192 19.9286 37.8347 21.8412C37.4502 23.7539 37.6475 25.7364 38.4017 27.5381C39.1559 29.3397 40.4331 30.8796 42.0717 31.9631C43.7103 33.0465 45.6368 33.6248 47.6076 33.6248C48.9162 33.6248 50.2119 33.3697 51.4208 32.8742C52.6297 32.3787 53.7282 31.6524 54.6535 30.7369C55.5788 29.8213 56.3127 28.7343 56.8135 27.5381C57.3143 26.3418 57.572 25.0597 57.572 23.7648Z" fill="white"/>
</svg>
