<svg width="62" height="63" viewBox="0 0 62 63" fill="none" xmlns="http://www.w3.org/2000/svg">
<path d="M16.0493 13.1841C17.2256 9.47791 20.1999 6.41236 24.1111 4.73319V9.36941C24.1111 9.82617 24.2925 10.2642 24.6155 10.5872C24.9385 10.9102 25.3765 11.0916 25.8333 11.0916C26.29 11.0916 26.7281 10.9102 27.0511 10.5872C27.3741 10.2642 27.5555 9.82617 27.5555 9.36941V2.48052C27.5555 2.02376 27.7369 1.58571 28.0599 1.26273C28.3829 0.939749 28.821 0.758301 29.2777 0.758301L32.7222 0.758301C33.1789 0.758301 33.617 0.939749 33.94 1.26273C34.2629 1.58571 34.4444 2.02376 34.4444 2.48052V9.36941C34.4444 9.82617 34.6258 10.2642 34.9488 10.5872C35.2718 10.9102 35.7098 11.0916 36.1666 11.0916C36.6234 11.0916 37.0614 10.9102 37.3844 10.5872C37.7074 10.2642 37.8888 9.82617 37.8888 9.36941V4.73319C41.8568 6.43647 44.8587 9.56402 46.0005 13.3426C45.5579 13.7008 44.819 14.1348 43.6669 14.555C41.0973 15.4919 36.7866 16.2583 30.0941 16.2583C25.2736 16.2583 21.4003 15.5074 18.7877 14.5533C17.5253 14.0935 16.6177 13.6078 16.0493 13.1841Z" fill="white"/>
<path fill-rule="evenodd" clip-rule="evenodd" d="M44.8467 17.7911C46.3708 17.2331 47.5729 16.5649 48.4272 15.7967C49.4037 16.7319 49.9444 17.7601 49.9444 18.8416C49.9444 20.9049 47.9742 22.7804 44.7605 24.1685C44.772 24.4004 44.7778 24.634 44.7778 24.8694C44.7761 26.7072 44.4068 28.5261 43.6916 30.219C42.9764 31.9119 41.9297 33.4446 40.6132 34.7269C39.2967 36.0092 37.7369 37.0151 36.0258 37.6855C34.3146 38.3558 32.4866 38.6771 30.6494 38.6303C28.8122 38.5836 27.003 38.1697 25.3281 37.4132C23.6533 36.6566 22.1467 35.5726 20.8972 34.225C19.6476 32.8774 18.6802 31.2935 18.0521 29.5664C17.4239 27.8393 17.1476 26.004 17.2394 24.1685C14.0258 22.7804 12.0556 20.9049 12.0556 18.8416C12.0556 17.7222 12.6342 16.6596 13.6762 15.7003L13.8708 15.8553C14.8077 16.5804 16.089 17.2365 17.608 17.7894C20.6581 18.9036 24.9429 19.7027 30.0941 19.7027C36.9968 19.7027 41.7518 18.9191 44.8467 17.7911ZM20.677 25.3413C20.796 27.9992 21.9355 30.5088 23.8584 32.3476C25.7814 34.1864 28.3394 35.2126 31 35.2126C33.6606 35.2126 36.2186 34.1864 38.1416 32.3476C40.0645 30.5088 41.204 27.9992 41.323 25.3413C38.3539 26.1335 34.8061 26.5916 31 26.5916C27.1939 26.5916 23.6461 26.1318 20.677 25.3413ZM0 62.7583H36.1667V42.9527L32.7222 45.5361V52.2476C32.1579 52.3789 31.5792 52.4385 31 52.425C30.1819 52.425 29.6308 52.3389 29.2778 52.2476V45.9184L21.2746 39.6943C11.2289 41.6232 0 46.1182 0 52.425L0 62.7583ZM12.0556 59.3139H25.8333V51.0127L14.5958 52.8865L17.8267 44.0033C15.8697 44.5078 13.9428 45.1231 12.0556 45.8461L12.0556 59.3139ZM3.44444 59.3139H8.61111L8.61111 47.3944L8.48366 47.4615C6.65122 48.4329 5.31133 49.4231 4.46744 50.3549C3.64078 51.2711 3.44444 51.9479 3.44444 52.425L3.44444 59.3139Z" fill="white"/>
<path d="M45.7594 34.6C46.7549 33.5838 48.1361 34.6086 47.833 35.9984L47.7882 36.2016C47.6333 36.91 47.6392 37.6441 47.8054 38.3498C47.9716 39.0556 48.2939 39.7152 48.7486 40.28C49.2033 40.8448 49.7788 41.3006 50.4328 41.6137C51.0868 41.9268 51.8027 42.0893 52.5278 42.0893C53.2529 42.0893 53.9687 41.9268 54.6227 41.6137C55.2767 41.3006 55.8522 40.8448 56.3069 40.28C56.7616 39.7152 57.0839 39.0556 57.2501 38.3498C57.4163 37.6441 57.4222 36.91 57.2673 36.2016L57.2225 35.9984C56.9194 34.6086 58.3007 33.5856 59.2961 34.6017C61.0326 36.37 62.0038 38.7504 62 41.2288C62.0004 42.835 61.5923 44.4149 60.8141 45.8201C60.0359 47.2252 58.9132 48.4094 57.5515 49.2612C57.071 49.5609 56.8333 50.1361 56.8333 50.7027V59.3138C56.8333 60.2274 56.4704 61.1035 55.8245 61.7494C55.1785 62.3954 54.3024 62.7583 53.3889 62.7583H51.6667C50.7531 62.7583 49.877 62.3954 49.2311 61.7494C48.5851 61.1035 48.2222 60.2274 48.2222 59.3138V50.7027C48.2222 50.1361 47.9845 49.5609 47.504 49.2612C46.1423 48.4094 45.0196 47.2252 44.2414 45.8201C43.4633 44.4149 43.0552 42.835 43.0555 41.2288C43.0555 38.6489 44.0872 36.3067 45.7594 34.6Z" fill="white"/>
</svg>
