<svg width="156" height="142" viewBox="0 0 156 142" fill="none" xmlns="http://www.w3.org/2000/svg">
<path d="M-0.000244141 61.1903L34.3232 67.389L48.8292 61.008L0.431229 60.8865L-0.000244141 61.1964L-0.000244141 61.1903Z" fill="#D6A3E4"/>
<path d="M5.16529 57.4892L56.5228 57.6169L65.2921 53.7579L10.738 53.4966L5.16529 57.4953V57.4892Z" fill="#D6A3E4"/>
<path d="M141.894 0L141.432 0.0911564L108.731 34.6394L122.502 28.5745L141.894 0Z" fill="#D6A3E4"/>
<path d="M82.1559 34.7793L70.3663 39.8597L70.2448 44.4358L79.9681 47.2981L81.7852 46.4959L85.79 38.2614L82.162 34.7732L82.1559 34.7793Z" fill="#D6A3E4"/>
<path d="M95.9874 40.2485L100.697 38.1762L135.683 1.20923L129.004 2.50973L95.9813 40.2546L95.9874 40.2485Z" fill="#D6A3E4"/>
<path d="M41.0566 68.1426L19.4768 77.635L13.9649 85.7601L62.296 76.292L41.0566 68.1426Z" fill="#D6A3E4"/>
<path d="M115.021 35.5935L86.7259 48.0455L109.108 56.4319L115.021 35.5935Z" fill="#D6A3E4"/>
<path d="M67.7167 74.7238L77.671 52.032L45.4928 66.1977L67.7167 74.7238Z" fill="#D6A3E4"/>
<path d="M144.228 22.7405L119.074 33.8129L113.119 54.791L155.264 24.837L144.228 22.7344V22.7405Z" fill="#D6A3E4"/>
<path d="M84.4654 50.8349L95.9876 78.1332L100.187 77.8476L97.7682 55.8121L84.4654 50.8289V50.8349Z" fill="#D6A3E4"/>
<path d="M75.0398 66.5017L89.2724 82.4419L92.8275 79.4276L81.3235 52.1719L75.0338 66.5017H75.0398Z" fill="#D6A3E4"/>
<mask id="mask0_204_140" style="mask-type:luminance" maskUnits="userSpaceOnUse" x="89" y="78" width="36" height="64">
<path d="M99.9316 78.8753L89.3563 83.4341L114.325 141.356L124.9 136.797L99.9316 78.8753Z" fill="#D6A3E4"/>
</mask>
<g mask="url(#mask0_204_140)">
<path d="M100.861 81.2202L95.5559 81.5848L91.2533 85.2372L119.548 139.098L100.861 81.2263V81.2202Z" fill="#D6A3E4"/>
</g>
</svg>
