<svg width="285" height="148" viewBox="0 0 285 148" fill="none" xmlns="http://www.w3.org/2000/svg">
<g filter="url(#filter0_d_204_174)">
<path d="M3.99585 61.1903L38.3193 67.389L52.8253 61.008L4.42732 60.8865L3.99585 61.1964L3.99585 61.1903Z" fill="#D6A3E4"/>
<path d="M9.16138 57.4892L60.5189 57.6169L69.2881 53.7579L14.7341 53.4966L9.16138 57.4953V57.4892Z" fill="#D6A3E4"/>
<path d="M145.89 0L145.428 0.0911564L112.727 34.6394L126.498 28.5745L145.89 0Z" fill="#D6A3E4"/>
<path d="M86.152 34.7793L74.3624 39.8597L74.2409 44.4358L83.9642 47.2981L85.7813 46.4959L89.7861 38.2614L86.1581 34.7732L86.152 34.7793Z" fill="#D6A3E4"/>
<path d="M99.9835 40.2485L104.693 38.1762L139.679 1.20923L133 2.50973L99.9774 40.2546L99.9835 40.2485Z" fill="#D6A3E4"/>
<path d="M45.0527 68.1426L23.4729 77.635L17.961 85.7601L66.2921 76.292L45.0527 68.1426Z" fill="#D6A3E4"/>
<path d="M119.017 35.5935L90.722 48.0455L113.104 56.4319L119.017 35.5935Z" fill="#D6A3E4"/>
<path d="M71.7128 74.7238L81.6671 52.032L49.4889 66.1977L71.7128 74.7238Z" fill="#D6A3E4"/>
<path d="M148.224 22.7405L123.071 33.8129L117.115 54.791L159.26 24.837L148.224 22.7344V22.7405Z" fill="#D6A3E4"/>
<path d="M88.4615 50.8349L99.9837 78.1332L104.183 77.8476L101.764 55.8121L88.4615 50.8289V50.8349Z" fill="#D6A3E4"/>
<path d="M79.0359 66.5017L93.2685 82.4419L96.8236 79.4276L85.3196 52.1719L79.0298 66.5017H79.0359Z" fill="#D6A3E4"/>
<mask id="mask0_204_174" style="mask-type:luminance" maskUnits="userSpaceOnUse" x="93" y="78" width="36" height="64">
<path d="M103.928 78.8753L93.3524 83.4341L118.321 141.356L128.897 136.797L103.928 78.8753Z" fill="#D6A3E4"/>
</mask>
<g mask="url(#mask0_204_174)">
<path d="M104.857 81.2202L99.552 81.5848L95.2494 85.2372L123.544 139.098L104.857 81.2263V81.2202Z" fill="#D6A3E4"/>
</g>
<path d="M145.319 49.3763C144.419 49.3763 143.648 50.1542 143.648 51.0658V71.8737C143.648 72.7853 144.419 73.5632 145.319 73.5632H170.94V77.0757H157.102L155.644 83.1042H152.216L153.717 77.0757H145.319C142.45 77.0757 140.178 74.7786 140.178 71.8737V51.0658C140.178 48.1609 142.45 45.8638 145.319 45.8638H170.94V49.3763H145.319Z" fill="#D6A3E4"/>
<path d="M203.628 49.3764H178.949V59.6953H198.785V63.2504H178.949V73.5693H203.628V77.0818H175.479V45.8699H203.628V49.3824V49.3764Z" fill="#D6A3E4"/>
<path d="M237.514 45.8638V49.3763H223.847V77.0757H220.377V49.3763H206.667V45.8638H237.514Z" fill="#D6A3E4"/>
<path d="M240.772 45.8638H244.242V77.0757H240.772V45.8638Z" fill="#D6A3E4"/>
<path d="M277.526 45.8638H280.996V77.0757H276.243L253.625 49.8503V77.0757H250.155V45.8638H254.907L277.526 73.0891V45.8638Z" fill="#D6A3E4"/>
<path d="M169.481 97.8899V101.402H155.814V129.102H152.344V101.402H138.634V97.8899H169.481Z" fill="#D6A3E4"/>
<path d="M200.93 101.402H176.251V111.721H196.087V115.276H176.251V125.595H200.93V129.108H172.781V97.896H200.93V101.409V101.402Z" fill="#D6A3E4"/>
<path d="M234.944 97.8899L222.048 113.496L234.986 129.102H230.489L219.01 115.27H209.068V129.102H205.555V97.8899H209.068V111.721H219.01C222.735 107.212 226.764 102.399 230.489 97.8899H234.944Z" fill="#D6A3E4"/>
<path d="M239.702 97.8899H243.172V129.102H239.702V97.8899Z" fill="#D6A3E4"/>
<path d="M276.456 97.8899H279.926V129.102H275.174L252.555 101.876V129.102H249.085V97.8899H253.837L276.456 125.115V97.8899Z" fill="#D6A3E4"/>
</g>
<defs>
<filter id="filter0_d_204_174" x="-0.00415039" y="0" width="285" height="147.098" filterUnits="userSpaceOnUse" color-interpolation-filters="sRGB">
<feFlood flood-opacity="0" result="BackgroundImageFix"/>
<feColorMatrix in="SourceAlpha" type="matrix" values="0 0 0 0 0 0 0 0 0 0 0 0 0 0 0 0 0 0 127 0" result="hardAlpha"/>
<feOffset dy="4"/>
<feGaussianBlur stdDeviation="2"/>
<feComposite in2="hardAlpha" operator="out"/>
<feColorMatrix type="matrix" values="0 0 0 0 0 0 0 0 0 0 0 0 0 0 0 0 0 0 0.25 0"/>
<feBlend mode="normal" in2="BackgroundImageFix" result="effect1_dropShadow_204_174"/>
<feBlend mode="normal" in="SourceGraphic" in2="effect1_dropShadow_204_174" result="shape"/>
</filter>
</defs>
</svg>
