<svg width="63" height="62" viewBox="0 0 63 62" fill="none" xmlns="http://www.w3.org/2000/svg">
<path d="M6.00928 6.78125L6.00928 12.834C6.00928 13.6048 5.70308 14.344 5.15806 14.889C4.61303 15.4341 3.87381 15.7402 3.10303 15.7402C2.33224 15.7402 1.59303 15.4341 1.048 14.889C0.502971 14.344 0.196777 13.6048 0.196777 12.834L0.196777 6.78125C0.196777 3.038 3.23478 0 6.97803 0L13.0308 0C13.8016 0 14.5408 0.306193 15.0858 0.851221C15.6308 1.39625 15.937 2.13546 15.937 2.90625C15.937 3.67704 15.6308 4.41625 15.0858 4.96128C14.5408 5.50631 13.8016 5.8125 13.0308 5.8125L6.97803 5.8125C6.7211 5.8125 6.47469 5.91456 6.29302 6.09624C6.11134 6.27792 6.00928 6.52432 6.00928 6.78125ZM25.144 0L37.2495 0C38.0203 0 38.7595 0.306193 39.3046 0.851221C39.8496 1.39625 40.1558 2.13546 40.1558 2.90625C40.1558 3.67704 39.8496 4.41625 39.3046 4.96128C38.7595 5.50631 38.0203 5.8125 37.2495 5.8125H25.144C24.3732 5.8125 23.634 5.50631 23.089 4.96128C22.544 4.41625 22.2378 3.67704 22.2378 2.90625C22.2378 2.13546 22.544 1.39625 23.089 0.851221C23.634 0.306193 24.3732 0 25.144 0ZM49.3628 0L55.4155 0C59.1627 0 62.1968 3.038 62.1968 6.78125V12.834C62.1968 13.6048 61.8906 14.344 61.3456 14.889C60.8005 15.4341 60.0613 15.7402 59.2905 15.7402C58.5197 15.7402 57.7805 15.4341 57.2355 14.889C56.6905 14.344 56.3843 13.6048 56.3843 12.834V6.78125C56.3843 6.52432 56.2822 6.27792 56.1005 6.09624C55.9189 5.91456 55.6725 5.8125 55.4155 5.8125H49.3628C48.592 5.8125 47.8528 5.50631 47.3077 4.96128C46.7627 4.41625 46.4565 3.67704 46.4565 2.90625C46.4565 2.13546 46.7627 1.39625 47.3077 0.851221C47.8528 0.306193 48.592 0 49.3628 0ZM6.00928 24.9473V37.0528C6.00928 37.8235 5.70308 38.5628 5.15806 39.1078C4.61303 39.6528 3.87381 39.959 3.10303 39.959C2.33224 39.959 1.59303 39.6528 1.048 39.1078C0.502971 38.5628 0.196777 37.8235 0.196777 37.0528L0.196777 24.9473C0.196777 24.1765 0.502971 23.4372 1.048 22.8922C1.59303 22.3472 2.33224 22.041 3.10303 22.041C3.87381 22.041 4.61303 22.3472 5.15806 22.8922C5.70308 23.4372 6.00928 24.1765 6.00928 24.9473ZM62.1968 24.9473V37.0528C62.1968 37.8235 61.8906 38.5628 61.3456 39.1078C60.8005 39.6528 60.0613 39.959 59.2905 39.959C58.5197 39.959 57.7805 39.6528 57.2355 39.1078C56.6905 38.5628 56.3843 37.8235 56.3843 37.0528V24.9473C56.3843 24.1765 56.6905 23.4372 57.2355 22.8922C57.7805 22.3472 58.5197 22.041 59.2905 22.041C60.0613 22.041 60.8005 22.3472 61.3456 22.8922C61.8906 23.4372 62.1968 24.1765 62.1968 24.9473ZM6.00928 49.166V55.2188C6.00928 55.7535 6.44328 56.1875 6.97803 56.1875H13.0308C13.8016 56.1875 14.5408 56.4937 15.0858 57.0387C15.6308 57.5837 15.937 58.323 15.937 59.0938C15.937 59.8645 15.6308 60.6038 15.0858 61.1488C14.5408 61.6938 13.8016 62 13.0308 62H6.97803C5.17953 62 3.45469 61.2856 2.18296 60.0138C0.911228 58.7421 0.196777 57.0172 0.196777 55.2188L0.196777 49.166C0.196777 48.3952 0.502971 47.656 1.048 47.111C1.59303 46.5659 2.33224 46.2597 3.10303 46.2597C3.87381 46.2597 4.61303 46.5659 5.15806 47.111C5.70308 47.656 6.00928 48.3952 6.00928 49.166ZM62.1968 49.166V55.2188C62.1968 57.0172 61.4823 58.7421 60.2106 60.0138C58.9389 61.2856 57.214 62 55.4155 62H49.3628C48.592 62 47.8528 61.6938 47.3077 61.1488C46.7627 60.6038 46.4565 59.8645 46.4565 59.0938C46.4565 58.323 46.7627 57.5837 47.3077 57.0387C47.8528 56.4937 48.592 56.1875 49.3628 56.1875H55.4155C55.6725 56.1875 55.9189 56.0854 56.1005 55.9038C56.2822 55.7221 56.3843 55.4757 56.3843 55.2188V49.166C56.3843 48.3952 56.6905 47.656 57.2355 47.111C57.7805 46.5659 58.5197 46.2597 59.2905 46.2597C60.0613 46.2597 60.8005 46.5659 61.3456 47.111C61.8906 47.656 62.1968 48.3952 62.1968 49.166ZM25.144 56.1875H37.2495C38.0203 56.1875 38.7595 56.4937 39.3046 57.0387C39.8496 57.5837 40.1558 58.323 40.1558 59.0938C40.1558 59.8645 39.8496 60.6038 39.3046 61.1488C38.7595 61.6938 38.0203 62 37.2495 62H25.144C24.3732 62 23.634 61.6938 23.089 61.1488C22.544 60.6038 22.2378 59.8645 22.2378 59.0938C22.2378 58.323 22.544 57.5837 23.089 57.0387C23.634 56.4937 24.3732 56.1875 25.144 56.1875ZM25.3843 11.625V15.5C25.3843 16.2708 25.0781 17.01 24.5331 17.555C23.988 18.1001 23.2488 18.4062 22.478 18.4062C21.7072 18.4062 20.968 18.1001 20.423 17.555C19.878 17.01 19.5718 16.2708 19.5718 15.5V11.625C19.5718 10.8542 19.878 10.115 20.423 9.56997C20.968 9.02494 21.7072 8.71875 22.478 8.71875C23.2488 8.71875 23.988 9.02494 24.5331 9.56997C25.0781 10.115 25.3843 10.8542 25.3843 11.625ZM8.91553 22.2812C8.91553 21.5105 9.22172 20.7712 9.76675 20.2262C10.3118 19.6812 11.051 19.375 11.8218 19.375H15.6968C16.4676 19.375 17.2068 19.6812 17.7518 20.2262C18.2968 20.7712 18.603 21.5105 18.603 22.2812C18.603 23.052 18.2968 23.7913 17.7518 24.3363C17.2068 24.8813 16.4676 25.1875 15.6968 25.1875H11.8218C11.051 25.1875 10.3118 24.8813 9.76675 24.3363C9.22172 23.7913 8.91553 23.052 8.91553 22.2812ZM26.353 22.2812C26.353 21.5105 26.6592 20.7712 27.2042 20.2262C27.7493 19.6812 28.4885 19.375 29.2593 19.375L33.1343 19.375C33.9051 19.375 34.6443 19.6812 35.1893 20.2262C35.7343 20.7712 36.0405 21.5105 36.0405 22.2812C36.0405 23.052 35.7343 23.7913 35.1893 24.3363C34.6443 24.8813 33.9051 25.1875 33.1343 25.1875L29.2593 25.1875C28.4885 25.1875 27.7493 24.8813 27.2042 24.3363C26.6592 23.7913 26.353 23.052 26.353 22.2812ZM22.478 26.1562C23.2488 26.1563 23.988 26.4624 24.5331 27.0075C25.0781 27.5525 25.3843 28.2917 25.3843 29.0625L25.3843 32.9375C25.3843 33.7083 25.0781 34.4475 24.5331 34.9925C23.988 35.5376 23.2488 35.8438 22.478 35.8438C21.7072 35.8438 20.968 35.5376 20.423 34.9925C19.878 34.4475 19.5718 33.7083 19.5718 32.9375L19.5718 29.0625C19.5718 28.2917 19.878 27.5525 20.423 27.0075C20.968 26.4624 21.7072 26.1563 22.478 26.1562ZM25.3843 41.6562V51.3438C25.3843 52.1145 25.0781 52.8538 24.5331 53.3988C23.988 53.9438 23.2488 54.25 22.478 54.25C21.7072 54.25 20.968 53.9438 20.423 53.3988C19.878 52.8538 19.5718 52.1145 19.5718 51.3438V41.6562C19.5718 40.8855 19.878 40.1462 20.423 39.6012C20.968 39.0562 21.7072 38.75 22.478 38.75C23.2488 38.75 23.988 39.0562 24.5331 39.6012C25.0781 40.1462 25.3843 40.8855 25.3843 41.6562ZM38.9468 22.2812C38.9468 21.5105 39.253 20.7712 39.798 20.2262C40.343 19.6812 41.0822 19.375 41.853 19.375H51.5405C52.3113 19.375 53.0505 19.6812 53.5956 20.2262C54.1406 20.7712 54.4468 21.5105 54.4468 22.2812C54.4468 23.052 54.1406 23.7913 53.5956 24.3363C53.0505 24.8813 52.3113 25.1875 51.5405 25.1875H41.853C41.0822 25.1875 40.343 24.8813 39.798 24.3363C39.253 23.7913 38.9468 23.052 38.9468 22.2812Z" fill="white"/>
</svg>
