<svg width="66" height="67" viewBox="0 0 66 67" fill="none" xmlns="http://www.w3.org/2000/svg">
<path d="M26.1111 9.64719L33 2.7583M19.2222 47.5361L46.7778 19.9805M33 64.7583L39.8889 57.8694M48.5 57.8694C50.7838 57.8694 52.9741 56.9622 54.589 55.3473C56.2039 53.7324 57.1111 51.5421 57.1111 49.2583C57.1111 46.9745 56.2039 44.7842 54.589 43.1693C52.9741 41.5544 50.7838 40.6472 48.5 40.6472C46.2162 40.6472 44.0259 41.5544 42.411 43.1693C40.7961 44.7842 39.8889 46.9745 39.8889 49.2583C39.8889 51.5421 40.7961 53.7324 42.411 55.3473C44.0259 56.9622 46.2162 57.8694 48.5 57.8694ZM17.5 26.8694C19.7838 26.8694 21.9741 25.9622 23.589 24.3473C25.2039 22.7324 26.1111 20.5421 26.1111 18.2583C26.1111 15.9745 25.2039 13.7842 23.589 12.1693C21.9741 10.5544 19.7838 9.64719 17.5 9.64719C15.2162 9.64719 13.0259 10.5544 11.411 12.1693C9.79613 13.7842 8.88889 15.9745 8.88889 18.2583C8.88889 20.5421 9.79613 22.7324 11.411 24.3473C13.0259 25.9622 15.2162 26.8694 17.5 26.8694ZM10.6111 64.7583C12.8949 64.7583 15.0852 63.8511 16.7001 62.2362C18.315 60.6213 19.2222 58.431 19.2222 56.1472C19.2222 53.8634 18.315 51.6731 16.7001 50.0582C15.0852 48.4433 12.8949 47.5361 10.6111 47.5361C8.3273 47.5361 6.13703 48.4433 4.52214 50.0582C2.90724 51.6731 2 53.8634 2 56.1472C2 58.431 2.90724 60.6213 4.52214 62.2362C6.13703 63.8511 8.3273 64.7583 10.6111 64.7583ZM55.3889 19.9805C57.6727 19.9805 59.863 19.0733 61.4779 17.4584C63.0928 15.8435 64 13.6532 64 11.3694C64 9.0856 63.0928 6.89533 61.4779 5.28044C59.863 3.66554 57.6727 2.7583 55.3889 2.7583C53.1051 2.7583 50.9148 3.66554 49.2999 5.28044C47.685 6.89533 46.7778 9.0856 46.7778 11.3694C46.7778 13.6532 47.685 15.8435 49.2999 17.4584C50.9148 19.0733 53.1051 19.9805 55.3889 19.9805Z" stroke="white" stroke-width="4" stroke-linecap="round" stroke-linejoin="round"/>
</svg>
